<svg width="1600" height="720" viewBox="0 0 1600 720" fill="none" xmlns="http://www.w3.org/2000/svg">
  <rect width="1600" height="720" rx="36" fill="#07111F"/>
  <rect x="48" y="48" width="1504" height="624" rx="32" fill="url(#paint0_linear)" stroke="#173A60"/>
  <text x="112" y="164" fill="#8CD3FF" font-family="Arial, sans-serif" font-size="28" font-weight="700">FastAPI + React Full-Stack Template</text>
  <text x="112" y="252" fill="#FFFFFF" font-family="Arial, sans-serif" font-size="68" font-weight="700">Modern FastAPI App</text>
  <text x="112" y="324" fill="#D8E5F2" font-family="Arial, sans-serif" font-size="30">Typed APIs, modern frontend workflows, Docker-first local setup, and clean full-stack project structure.</text>
  <rect x="112" y="388" width="212" height="58" rx="29" fill="#1EE7D4"/>
  <text x="170" y="425" fill="#04101F" font-family="Arial, sans-serif" font-size="24" font-weight="700">FastAPI</text>
  <rect x="348" y="388" width="212" height="58" rx="29" fill="#173252"/>
  <text x="418" y="425" fill="#EAF6FF" font-family="Arial, sans-serif" font-size="24" font-weight="700">React</text>
  <rect x="584" y="388" width="212" height="58" rx="29" fill="#173252"/>
  <text x="655" y="425" fill="#EAF6FF" font-family="Arial, sans-serif" font-size="24" font-weight="700">Docker</text>
  <rect x="990" y="152" width="452" height="384" rx="28" fill="#0E223E" stroke="#1A4268"/>
  <text x="1032" y="214" fill="#8CD3FF" font-family="Arial, sans-serif" font-size="22" font-weight="700">Stack Flow</text>
  <text x="1032" y="278" fill="#FFFFFF" font-family="Arial, sans-serif" font-size="28" font-weight="700">Backend</text>
  <text x="1032" y="336" fill="#FFFFFF" font-family="Arial, sans-serif" font-size="28" font-weight="700">Frontend</text>
  <text x="1032" y="394" fill="#FFFFFF" font-family="Arial, sans-serif" font-size="28" font-weight="700">Database</text>
  <text x="1032" y="452" fill="#FFFFFF" font-family="Arial, sans-serif" font-size="28" font-weight="700">Local Dev</text>
  <path d="M1146 270H1350" stroke="#1EE7D4" stroke-width="10" stroke-linecap="round"/>
  <path d="M1146 328H1310" stroke="#2A527C" stroke-width="10" stroke-linecap="round"/>
  <path d="M1146 386H1328" stroke="#1EE7D4" stroke-width="10" stroke-linecap="round"/>
  <path d="M1146 444H1288" stroke="#2A527C" stroke-width="10" stroke-linecap="round"/>
  <defs>
    <linearGradient id="paint0_linear" x1="800" y1="48" x2="800" y2="672" gradientUnits="userSpaceOnUse">
      <stop stop-color="#0A2347"/>
      <stop offset="1" stop-color="#081426"/>
    </linearGradient>
  </defs>
</svg>
